Coordinates
version=1
nRows=26
nColumns=24
inDegrees=yes

Units are S.I. units (second, meters, Newtons, ...)
Angles are in degrees.

endheader
time	pelvis_tilt	pelvis_list	pelvis_rotation	pelvis_tx	pelvis_ty	pelvis_tz	hip_flexion_r	hip_adduction_r	hip_rotation_r	knee_angle_r	ankle_angle_r	subtalar_angle_r	mtp_angle_r	hip_flexion_l	hip_adduction_l	hip_rotation_l	knee_angle_l	ankle_angle_l	subtalar_angle_l	mtp_angle_l	lumbar_extension	lumbar_bending	lumbar_rotation
      4.05500000	    -15.72772268	     -6.89419154	      2.13655259	     -1.59569711	     -0.02232077	     -0.30803091	     23.65021151	     10.71977254	     -3.57629579	    -23.84650202	      9.30705665	    -16.73251815	     -5.72230416	     32.36016256	     -8.44497700	     -3.35895704	    -63.52976420	     -6.33056153	     -9.12634980	     18.57565292	     22.11218778	      3.58743944	    -16.78885876
      4.06000000	    -15.80503680	     -6.52923374	      1.92991659	     -1.58938429	     -0.02123897	     -0.30774409	     22.84662520	     10.48878405	     -3.15822742	    -23.14973208	      9.38308240	    -16.60718096	     -5.93897325	     33.09292367	     -8.10499720	     -3.72310307	    -62.95002318	     -5.81746473	     -9.20003593	     18.58320209	     22.11229553	      3.31854747	    -16.25673827
      4.06500000	    -15.86266306	     -6.18044633	      1.69324460	     -1.58308672	     -0.02022205	     -0.30743324	     22.01706115	     10.27896826	     -2.68882500	    -22.43857765	      9.46647995	    -16.45800690	     -6.17371204	     33.78807428	     -7.82123912	     -4.13616871	    -62.31523517	     -5.35750043	     -9.34504317	     18.51111815	     22.08849835	      3.08173957	    -15.70193388
      4.07000000	    -15.84073537	     -5.86880701	      1.47689521	     -1.57678053	     -0.01921434	     -0.30713176	     21.09019008	     10.10429376	     -2.20122786	    -21.70840645	      9.56347795	    -16.30418458	     -6.79103861	     34.38855443	     -7.58992105	     -4.54832314	    -61.63489305	     -4.89652556	     -9.49175328	     18.21298440	     21.98110332	      2.87374494	    -15.19187586
      4.07500000	    -15.95415868	     -5.52485162	      1.23398371	     -1.57053995	     -0.01841506	     -0.30684835	     20.34857628	      9.86141176	     -1.81779085	    -21.02000230	      9.65706934	    -16.08227352	     -6.91683796	     35.11617095	     -7.33646971	     -4.97261014	    -60.88325643	     -4.49925629	     -9.62289966	     18.07720330	     22.00951467	      2.64161447	    -14.63519576
      4.08000000	    -16.00561087	     -5.19328323	      0.99277641	     -1.56429453	     -0.01762691	     -0.30655717	     19.52924452	      9.63025761	     -1.40499240	    -20.30382859	      9.73178372	    -15.89984217	     -7.07552195	     35.75192100	     -7.11858374	     -5.41947004	    -60.06290544	     -4.12256184	     -9.77938058	     17.87042089	     21.97048427	      2.42017132	    -14.09741324
      4.08500000	    -16.04367194	     -4.87667240	      0.75591000	     -1.55807308	     -0.01690923	     -0.30628382	     18.70115098	      9.40056744	     -1.01784019	    -19.58443197	      9.80628492	    -15.70356458	     -7.23239153	     36.35624451	     -6.93013244	     -5.87167904	    -59.18329772	     -3.74953327	     -9.89085663	     17.62687654	     21.91396886	      2.21340720	    -13.57195435
      4.09000000	    -16.00563465	     -4.59422442	      0.53408181	     -1.55185689	     -0.01620242	     -0.30604291	     17.77902910	      9.19622254	     -0.61739397	    -18.83816744	      9.87875892	    -15.49917207	     -7.52971528	     36.86673020	     -6.78862474	     -6.33146840	    -58.26707031	     -3.35779581	     -9.92278512	     17.11202262	     21.77294052	      2.03730020	    -13.10235295
      4.09500000	    -16.10565203	     -4.28968236	      0.29427147	     -1.54571503	     -0.01572489	     -0.30578884	     17.05782181	      8.94707599	     -0.33452479	    -18.16035045	      9.96594941	    -15.24208691	     -7.57485436	     37.50048879	     -6.63462123	     -6.78475518	    -57.26260133	     -2.99230783	     -9.92406192	     16.94125637	     21.77084457	      1.83745242	    -12.57722225
      4.10000000	    -16.14495451	     -3.99726436	      0.05812844	     -1.53956967	     -0.01524991	     -0.30556568	     16.26379320	      8.70039290	     -0.04554415	    -17.46054266	     10.03773962	    -14.98806231	     -7.59257627	     38.04120819	     -6.51103486	     -7.26408934	    -56.19041596	     -2.64792058	     -9.88206077	     16.75146128	     21.70337051	      1.65368188	    -12.07948816
      4.10500000	    -16.13283349	     -3.73035541	     -0.18491568	     -1.53345361	     -0.01481891	     -0.30535329	     15.41453059	      8.47183500	      0.25451513	    -16.75063639	     10.11233867	    -14.70498447	     -7.54862041	     38.50518141	     -6.42995773	     -7.75623827	    -55.06642660	     -2.29387728	     -9.78821634	     16.50553963	     21.57244048	      1.49826401	    -11.60376417
      4.11000000	    -16.18572210	     -3.46071879	     -0.41211208	     -1.52734927	     -0.01452191	     -0.30514494	     14.66528846	      8.22423107	      0.43274989	    -16.07787812	     10.17104156	    -14.42711741	     -7.46663640	     39.01363852	     -6.34762453	     -8.23467283	    -53.86893344	     -1.94751227	     -9.56167330	     16.37114827	     21.51237666	      1.32799501	    -11.13467108
      4.11500000	    -16.20538968	     -3.20334965	     -0.64868368	     -1.52127025	     -0.01428268	     -0.30494580	     13.88618649	      7.98165133	      0.62325781	    -15.40843246	     10.24056560	    -14.11263519	     -7.31690817	     39.45795738	     -6.29239625	     -8.73045301	    -52.60983988	     -1.59988940	     -9.29196398	     16.25285191	     21.40981210	      1.17008928	    -10.67976311
      4.12000000	    -16.22197994	     -2.96174876	     -0.87347405	     -1.51521566	     -0.01412734	     -0.30477172	     13.11842507	      7.74297176	      0.77317586	    -14.75541911	     10.30730584	    -13.78449620	     -7.11631598	     39.87959894	     -6.25843931	     -9.23337441	    -51.29645277	     -1.26827680	     -8.93759519	     16.17213616	     21.29794387	      1.02568813	    -10.23901970
      4.12500000	    -16.22130957	     -2.72739093	     -1.10888232	     -1.50917336	     -0.01405155	     -0.30458811	     12.34362598	      7.50658957	      0.91017861	    -14.11639205	     10.38992208	    -13.43507271	     -6.84078750	     40.25154994	     -6.24385180	     -9.74978111	    -49.92261344	     -0.92932208	     -8.52665656	     16.11577641	     21.16378834	      0.88345183	     -9.81519673
      4.13000000	    -16.25444475	     -2.48876173	     -1.31943932	     -1.50314285	     -0.01409056	     -0.30445632	     11.61900027	      7.25268231	      1.00579427	    -13.49448039	     10.47654979	    -13.08753906	     -6.57240286	     40.64281522	     -6.21864548	    -10.26275582	    -48.50050848	     -0.63317012	     -7.98260083	     16.11573956	     21.06303628	      0.73780633	     -9.40193224
      4.13500000	    -16.25576187	     -2.26664505	     -1.55616436	     -1.49713366	     -0.01420226	     -0.30430115	     10.88209545	      7.01562957	      1.08916092	    -12.90687457	     10.58137305	    -12.71723685	     -6.24737593	     40.96358847	     -6.22790126	    -10.80823031	    -47.01584467	     -0.30695600	     -7.44102195	     16.13120116	     20.92519882	      0.60692360	     -8.99598617
      4.14000000	    -16.27674060	     -2.04233459	     -1.77331197	     -1.49113638	     -0.01440438	     -0.30416606	     10.18491153	      6.76786690	      1.16066973	    -12.34993077	     10.68483898	    -12.34336055	     -5.91869323	     41.28424169	     -6.22713843	    -11.34619604	    -45.48014226	     -0.03469169	     -6.80011247	     16.17444576	     20.80755243	      0.46449578	     -8.61548333
      4.14500000	    -16.23631109	     -1.78666153	     -1.97149567	     -1.48511968	     -0.01461087	     -0.30411140	      9.42874476	      6.46755244	      1.21992554	    -11.79602820	     10.80209802	    -11.96731842	     -5.36896632	     41.49936525	     -6.17615230	    -11.91478652	    -43.87226080	      0.18533156	     -6.19090048	     16.20009446	     20.62168005	      0.28687163	     -8.29324445
      4.15000000	    -16.33146476	     -1.59980544	     -2.20280977	     -1.47918155	     -0.01509776	     -0.30396869	      8.87492251	      6.26251814	      1.25418397	    -11.34806055	     10.92721378	    -11.61769499	     -5.11316357	     41.86664762	     -6.22863476	    -12.46807466	    -42.27346763	      0.45252586	     -5.39402605	     16.30071387	     20.57198728	      0.18427652	     -7.90890128
      4.15500000	    -16.37737480	     -1.37281418	     -2.43265600	     -1.47322720	     -0.01558755	     -0.30385508	      8.28590106	      6.00544019	      1.31112773	    -10.93235099	     11.08645484	    -11.25006995	     -4.84195306	     42.13956555	     -6.23852862	    -13.07418222	    -40.60890338	      0.65299581	     -4.61796247	     16.38790189	     20.47160174	      0.03940222	     -7.54050365
      4.16000000	    -16.41730649	     -1.14596712	     -2.66062872	     -1.46728112	     -0.01615239	     -0.30377531	      7.71787540	      5.74308112	      1.36582665	    -10.56459883	     11.26119692	    -10.88780932	     -4.56584324	     42.38333797	     -6.24270861	    -13.69936102	    -38.90846404	      0.82490008	     -3.82368656	     16.48345696	     20.36225771	     -0.10367607	     -7.18727749
      4.16500000	    -16.40730620	     -0.89055935	     -2.85974529	     -1.46132076	     -0.01671779	     -0.30377906	      7.11241296	      5.43358754	      1.39997633	    -10.21757045	     11.44651138	    -10.53697434	     -4.14393870	     42.54105673	     -6.17812961	    -14.30318217	    -37.14828370	      0.91980198	     -3.08049996	     16.59633132	     20.20185325	     -0.28535515	     -6.85288924
      4.17000000	    -16.52960459	     -0.70362428	     -3.10068056	     -1.45541038	     -0.01754323	     -0.30368336	      6.69996705	      5.22242948	      1.46642945	     -9.97230946	     11.63712170	    -10.22942597	     -3.95982845	     42.85302881	     -6.23438485	    -14.96577567	    -35.43321346	      1.03626326	     -2.20120697	     16.72205117	     20.17726553	     -0.39095855	     -6.53299404
      4.17500000	    -16.58827968	     -0.47391302	     -3.34776129	     -1.44948458	     -0.01833772	     -0.30365223	      6.24721705	      4.95290600	      1.55402819	     -9.77525120	     11.85826646	     -9.90706559	     -3.75854205	     43.05076647	     -6.22411591	    -15.62326497	    -33.65627472	      1.10499833	     -1.38682897	     16.86230217	     20.08697781	     -0.53335016	     -6.17399984
      4.18000000	    -16.67397966	     -0.26132780	     -3.58344643	     -1.44354495	     -0.01921967	     -0.30363316	      5.84197546	      4.70101712	      1.63463689	     -9.61302055	     12.07295686	     -9.60156548	     -3.60027036	     43.27421788	     -6.22927454	    -16.32585137	    -31.89596844	      1.10750788	     -0.55458361	     17.01573633	     20.02747670	     -0.66638945	     -5.86222985
